<svg xmlns="http://www.w3.org/2000/svg" width="20" height="14" viewBox="0 0 20 14">
  <metadata><?xpacket begin="﻿" id="W5M0MpCehiHzreSzNTczkc9d"?>
<x:xmpmeta xmlns:x="adobe:ns:meta/" x:xmptk="Adobe XMP Core 5.6-c142 79.160924, 2017/07/13-01:06:39        ">
   <rdf:RDF xmlns:rdf="http://www.w3.org/1999/02/22-rdf-syntax-ns#">
      <rdf:Description rdf:about=""/>
   </rdf:RDF>
</x:xmpmeta>
                                                                                                    
                                                                                                    
                                                                                                    
                                                                                                    
                                                                                                    
                                                                                                    
                                                                                                    
                                                                                                    
                                                                                                    
                                                                                                    
                                                                                                    
                                                                                                    
                                                                                                    
                                                                                                    
                                                                                                    
                                                                                                    
                                                                                                    
                                                                                                    
                                                                                                    
                                                                                                    
                           
<?xpacket end="w"?></metadata>
<defs>
    <style>
      .cls-1 {
        fill: #b8adc8;
        fill-rule: evenodd;
      }
    </style>
  </defs>
  <path id="arrow_video" class="cls-1" d="M899,2360.97h18a1,1,0,0,1,1,1V2362a1,1,0,0,1-1,1H899a1,1,0,0,1-1-1v-0.03A1,1,0,0,1,899,2360.97Zm11.464,7.71a0.984,0.984,0,0,0,1.415,0l5.657-5.8a1.045,1.045,0,0,0,0-1.45,0.984,0.984,0,0,0-1.415,0l-5.657,5.8A1.045,1.045,0,0,0,910.464,2368.68Zm0-13.4a1.045,1.045,0,0,0,0,1.45l5.657,5.8a0.984,0.984,0,0,0,1.415,0,1.045,1.045,0,0,0,0-1.45l-5.657-5.8A0.984,0.984,0,0,0,910.464,2355.28Z" transform="translate(-898 -2355)"/>
</svg>
